<svg version="1.1" viewBox="0.0 0.0 551.4566929133858 100.0" fill="none" stroke="none" stroke-linecap="square" stroke-miterlimit="10" xmlns:xlink="http://www.w3.org/1999/xlink" xmlns="http://www.w3.org/2000/svg"><clipPath id="p.0"><path d="m0 0l551.45667 0l0 100.0l-551.45667 0l0 -100.0z" clip-rule="nonzero"/></clipPath><g clip-path="url(#p.0)"><path fill="#000000" fill-opacity="0.0" d="m0 0l551.45667 0l0 100.0l-551.45667 0z" fill-rule="evenodd"/><path fill="#000000" fill-opacity="0.0" d="m13.874016 16.829397l90.120735 0l-45.060368 70.561676z" fill-rule="evenodd"/><path stroke="#1401ff" stroke-width="16.0" stroke-linejoin="round" stroke-linecap="butt" d="m13.874016 16.829397l90.120735 0l-45.060368 70.561676z" fill-rule="evenodd"/><path fill="#000000" fill-opacity="0.0" d="m103.99475 13.322835l461.4488 0l0 77.5748l-461.4488 0z" fill-rule="evenodd"/><path fill="#ffffff" d="m116.68225 68.40283l0 -34.078125l6.9375 0l0 28.28125l17.25 0l0 5.796875l-24.1875 0zm29.085938 -28.265625l0 -6.09375l6.578125 0l0 6.09375l-6.578125 0zm0 28.265625l0 -24.890625l6.578125 0l0 24.890625l-6.578125 0zm10.6796875 0l0 -5.140625l9.328125 -10.703125q2.296875 -2.625 3.40625 -3.734375q-1.15625 0.078125 -3.03125 0.09375l-8.78125 0.046875l0 -5.453125l20.578125 0l0 4.65625l-9.515625 10.96875l-3.359375 3.640625q2.75 -0.171875 3.40625 -0.171875l10.1875 0l0 5.796875l-22.21875 0zm31.578125 -17.296875l-5.984375 -1.078125q1.015625 -3.609375 3.46875 -5.34375q2.46875 -1.734375 7.3125 -1.734375q4.40625 0 6.5625 1.046875q2.15625 1.03125 3.03125 2.640625q0.890625 1.609375 0.890625 5.890625l-0.078125 7.6875q0 3.28125 0.3125 4.84375q0.328125 1.5625 1.1875 3.34375l-6.515625 0q-0.25 -0.65625 -0.625 -1.953125q-0.171875 -0.578125 -0.234375 -0.765625q-1.6875 1.640625 -3.609375 2.46875q-1.921875 0.8125 -4.109375 0.8125q-3.84375 0 -6.0625 -2.078125q-2.203125 -2.09375 -2.203125 -5.28125q0 -2.109375 1.0 -3.765625q1.015625 -1.65625 2.828125 -2.53125q1.8125 -0.875 5.234375 -1.53125q4.625 -0.875 6.40625 -1.625l0 -0.65625q0 -1.890625 -0.9375 -2.703125q-0.9375 -0.8125 -3.546875 -0.8125q-1.75 0 -2.734375 0.703125q-0.984375 0.6875 -1.59375 2.421875zm8.8125 5.34375q-1.265625 0.421875 -4.015625 1.015625q-2.734375 0.578125 -3.578125 1.140625q-1.296875 0.90625 -1.296875 2.3125q0 1.390625 1.03125 2.40625q1.03125 1.0 2.625 1.0q1.78125 0 3.40625 -1.171875q1.1875 -0.890625 1.5625 -2.1875q0.265625 -0.84375 0.265625 -3.203125l0 -1.3125zm19.257812 11.953125l-6.578125 0l0 -24.890625l6.109375 0l0 3.53125q1.578125 -2.5 2.828125 -3.296875q1.25 -0.796875 2.84375 -0.796875q2.25 0 4.34375 1.234375l-2.046875 5.75q-1.65625 -1.078125 -3.09375 -1.078125q-1.375 0 -2.34375 0.765625q-0.953125 0.75 -1.515625 2.75q-0.546875 1.984375 -0.546875 8.34375l0 7.6875zm35.210938 0l-6.125 0l0 -3.65625q-1.515625 2.125 -3.59375 3.171875q-2.078125 1.046875 -4.1875 1.046875q-4.28125 0 -7.34375 -3.453125q-3.0625 -3.46875 -3.0625 -9.65625q0 -6.328125 2.96875 -9.609375q2.984375 -3.296875 7.53125 -3.296875q4.171875 0 7.21875 3.46875l0 -12.375l6.59375 0l0 34.359375zm-17.578125 -12.984375q0 3.984375 1.09375 5.765625q1.59375 2.578125 4.453125 2.578125q2.28125 0 3.875 -1.9375q1.59375 -1.9375 1.59375 -5.78125q0 -4.28125 -1.546875 -6.171875q-1.546875 -1.890625 -3.96875 -1.890625q-2.34375 0 -3.921875 1.875q-1.578125 1.859375 -1.578125 5.5625zm37.453125 12.984375l0 -34.359375l11.125 0q6.328125 0 8.25 0.515625q2.953125 0.765625 4.9375 3.359375q2.0 2.59375 2.0 6.6875q0 3.171875 -1.15625 5.328125q-1.140625 2.15625 -2.90625 3.390625q-1.765625 1.21875 -3.59375 1.625q-2.484375 0.484375 -7.203125 0.484375l-4.515625 0l0 12.96875l-6.9375 0zm6.9375 -28.546875l0 9.75l3.796875 0q4.09375 0 5.46875 -0.53125q1.390625 -0.546875 2.171875 -1.6875q0.796875 -1.15625 0.796875 -2.6875q0 -1.875 -1.109375 -3.09375q-1.09375 -1.21875 -2.78125 -1.515625q-1.25 -0.234375 -5.0 -0.234375l-3.34375 0zm39.4375 20.625l6.5625 1.09375q-1.265625 3.609375 -4.0 5.5q-2.71875 1.890625 -6.828125 1.890625q-6.484375 0 -9.609375 -4.25q-2.453125 -3.390625 -2.453125 -8.578125q0 -6.1875 3.234375 -9.6875q3.234375 -3.5 8.171875 -3.5q5.5625 0 8.765625 3.671875q3.21875 3.65625 3.078125 11.234375l-16.5 0q0.0625 2.921875 1.578125 4.5625q1.53125 1.625 3.8125 1.625q1.546875 0 2.59375 -0.84375q1.0625 -0.84375 1.59375 -2.71875zm0.375 -6.65625q-0.0625 -2.859375 -1.46875 -4.34375q-1.40625 -1.5 -3.421875 -1.5q-2.15625 0 -3.5625 1.578125q-1.40625 1.5625 -1.390625 4.265625l9.84375 0zm10.3828125 1.78125q0 -3.28125 1.609375 -6.34375q1.625 -3.078125 4.59375 -4.6875q2.96875 -1.625 6.625 -1.625q5.640625 0 9.25 3.671875q3.609375 3.65625 3.609375 9.265625q0 5.640625 -3.640625 9.359375q-3.640625 3.71875 -9.171875 3.71875q-3.421875 0 -6.53125 -1.546875q-3.109375 -1.546875 -4.734375 -4.53125q-1.609375 -3.0 -1.609375 -7.28125zm6.75 0.34375q0 3.703125 1.75 5.671875q1.765625 1.96875 4.34375 1.96875q2.578125 0 4.328125 -1.96875q1.75 -1.96875 1.75 -5.71875q0 -3.65625 -1.75 -5.625q-1.75 -1.96875 -4.328125 -1.96875q-2.578125 0 -4.34375 1.96875q-1.75 1.96875 -1.75 5.671875zm23.914062 -12.4375l6.140625 0l0 3.65625q1.1875 -1.875 3.21875 -3.046875q2.046875 -1.171875 4.53125 -1.171875q4.34375 0 7.359375 3.40625q3.03125 3.390625 3.03125 9.453125q0 6.234375 -3.046875 9.703125q-3.046875 3.453125 -7.390625 3.453125q-2.0625 0 -3.734375 -0.8125q-1.671875 -0.828125 -3.53125 -2.828125l0 12.546883l-6.578125 0l0 -34.359383zm6.515625 12.015625q0 4.203125 1.65625 6.203125q1.671875 2.0 4.0625 2.0q2.296875 0 3.8125 -1.828125q1.53125 -1.84375 1.53125 -6.046875q0 -3.90625 -1.578125 -5.796875q-1.5625 -1.90625 -3.890625 -1.90625q-2.40625 0 -4.0 1.859375q-1.59375 1.859375 -1.59375 5.515625zm22.992188 12.875l0 -34.359375l6.578125 0l0 34.359375l-6.578125 0zm27.742188 -7.921875l6.5625 1.09375q-1.265625 3.609375 -4.0 5.5q-2.71875 1.890625 -6.828125 1.890625q-6.484375 0 -9.609375 -4.25q-2.453125 -3.390625 -2.453125 -8.578125q0 -6.1875 3.234375 -9.6875q3.234375 -3.5 8.171875 -3.5q5.5625 0 8.765625 3.671875q3.21875 3.65625 3.078125 11.234375l-16.5 0q0.0625 2.921875 1.578125 4.5625q1.53125 1.625 3.8125 1.625q1.546875 0 2.59375 -0.84375q1.0625 -0.84375 1.59375 -2.71875zm0.375 -6.65625q-0.0625 -2.859375 -1.46875 -4.34375q-1.40625 -1.5 -3.421875 -1.5q-2.15625 0 -3.5625 1.578125q-1.40625 1.5625 -1.390625 4.265625l9.84375 0zm47.28125 1.9375l6.71875 2.140625q-1.546875 5.625 -5.140625 8.359375q-3.59375 2.734375 -9.125 2.734375q-6.84375 0 -11.25 -4.671875q-4.40625 -4.6875 -4.40625 -12.796875q0 -8.578125 4.421875 -13.328125q4.4375 -4.75 11.65625 -4.75q6.296875 0 10.234375 3.734375q2.34375 2.203125 3.515625 6.328125l-6.859375 1.640625q-0.609375 -2.671875 -2.546875 -4.21875q-1.9375 -1.546875 -4.703125 -1.546875q-3.8125 0 -6.203125 2.75q-2.375 2.734375 -2.375 8.875q0 6.515625 2.34375 9.28125q2.34375 2.765625 6.09375 2.765625q2.765625 0 4.75 -1.75q2.0 -1.765625 2.875 -5.546875zm12.6328125 12.640625l0 -34.359375l6.578125 0l0 34.359375l-6.578125 0zm29.710938 0l0 -3.734375q-1.359375 2.0 -3.578125 3.15625q-2.203125 1.140625 -4.671875 1.140625q-2.5 0 -4.5 -1.09375q-1.984375 -1.109375 -2.875 -3.09375q-0.890625 -2.0 -0.890625 -5.515625l0 -15.75l6.578125 0l0 11.4375q0 5.25 0.359375 6.4375q0.375 1.171875 1.328125 1.875q0.96875 0.6875 2.4375 0.6875q1.6875 0 3.015625 -0.921875q1.34375 -0.9375 1.828125 -2.296875q0.5 -1.375 0.5 -6.71875l0 -10.5l6.59375 0l0 24.890625l-6.125 0zm12.6640625 0l0 -34.359375l6.578125 0l0 12.375q3.046875 -3.46875 7.21875 -3.46875q4.546875 0 7.515625 3.296875q2.984375 3.28125 2.984375 9.453125q0 6.375 -3.03125 9.828125q-3.03125 3.4375 -7.375 3.4375q-2.125 0 -4.203125 -1.0625q-2.078125 -1.078125 -3.578125 -3.15625l0 3.65625l-6.109375 0zm6.53125 -12.984375q0 3.859375 1.21875 5.71875q1.71875 2.625 4.546875 2.625q2.1875 0 3.71875 -1.859375q1.53125 -1.875 1.53125 -5.875q0 -4.265625 -1.546875 -6.15625q-1.546875 -1.890625 -3.953125 -1.890625q-2.375 0 -3.953125 1.84375q-1.5625 1.84375 -1.5625 5.59375z" fill-rule="nonzero"/></g></svg>